# Blender v2.79 (sub 0) OBJ File: ''
# www.blender.org
v -0.859902 -0.100000 -0.100000
v 0.859902 -0.100000 -0.100000
v 0.859902 -0.100000 0.100000
v -0.859902 -0.100000 0.100000
v -0.859901 0.100000 -0.100000
v 0.859903 0.100000 -0.100000
v 0.859902 0.100000 0.100000
v -0.859902 0.100000 0.092598
vt 0.666724 0.333447
vt 0.333447 0.666724
vt 0.333447 0.333447
vt 0.679058 0.333276
vt 1.000000 0.000000
vt 1.000000 0.333276
vt 0.000000 0.666724
vt 0.333276 0.333447
vt 0.333276 0.666724
vt 0.333447 0.000000
vt 0.666724 0.333276
vt 0.333447 0.333276
vt 0.333447 0.333333
vt 0.000228 0.000000
vt 0.333447 0.000114
vt 0.000000 0.987666
vt 0.666724 0.666724
vt 0.666724 0.000000
vt 0.000000 0.333447
vt 0.000000 0.333447
vt 0.333276 1.000000
vn 0.0000 -1.0000 -0.0000
vn 0.0000 1.0000 -0.0000
vn 0.0000 -0.0000 -1.0000
vn 1.0000 -0.0000 0.0000
vn -0.0000 -0.0000 1.0000
vn -1.0000 0.0000 -0.0000
vn -0.0043 0.0370 0.9993
s off
f 2/1/1 4/2/1 1/3/1
f 8/4/2 6/5/2 5/6/2
f 5/7/3 2/8/3 1/9/3
f 6/10/4 3/11/4 2/12/4
f 7/13/5 4/14/5 3/15/5
f 1/9/6 8/16/6 5/7/6
f 2/1/1 3/17/1 4/2/1
f 8/4/2 7/18/2 6/5/2
f 5/7/3 6/19/3 2/8/3
f 6/10/4 7/18/4 3/11/4
f 7/13/7 8/20/7 4/14/7
f 1/9/6 4/21/6 8/16/6