# Blender v2.74 (sub 0) OBJ File: 'drone_1.blend'
# www.blender.org
o Cylinder_Cylinder.014
v -1.883602 0.132462 0.735306
v -1.883602 0.174222 0.735306
v -1.788496 0.132462 0.804404
v -1.788496 0.174222 0.804404
v -1.824823 0.132462 0.916208
v -1.824823 0.174222 0.916208
v -1.942380 0.132462 0.916207
v -1.942380 0.174222 0.916207
v -1.978707 0.132462 0.804404
v -1.978707 0.174222 0.804404
v -1.863135 0.174222 0.828656
v -1.883602 0.174222 0.813786
v -1.870953 0.174222 0.852715
v -1.896250 0.174222 0.852715
v -1.904068 0.174222 0.828656
v -1.863135 0.916812 0.828656
v -1.883602 0.916812 0.813786
v -1.870953 0.916812 0.852715
v -1.896250 0.916812 0.852715
v -1.904068 0.916812 0.828656
v -2.286099 0.009308 -2.138704
v 1.297701 0.012615 -0.992310
v -2.284713 -0.334126 -1.065506
v 1.298724 -0.091736 -0.486128
v -2.284713 -0.334126 1.080889
v 1.298725 -0.091736 0.501508
v -2.286099 0.009308 2.154087
v 1.297701 0.012615 1.007690
v -2.287486 0.150147 1.080889
v 1.296678 0.114182 0.501621
v -2.287486 0.150147 -1.065506
v 1.296678 0.114182 -0.486240
v 0.185472 -0.167038 -0.666121
v 1.297705 0.012222 -0.839180
v 0.184336 0.083606 -1.348455
v 1.297705 0.012222 0.854561
v 2.560865 -0.091736 -0.280829
v 2.559846 0.012222 -0.487105
v 2.560865 -0.091736 0.296209
v 2.559846 0.012222 0.502485
v 2.559127 0.083252 0.257174
v 2.559127 0.083252 -0.241794
v 0.038082 0.155692 0.306384
v -2.127783 0.151514 0.652801
v -2.127784 0.151514 -0.637418
v 0.038082 0.155692 -0.291002
v -2.127783 0.486779 0.652801
v -2.127783 0.486779 -0.637418
v -1.044851 0.139220 0.560572
v -1.044851 0.139220 -0.545190
v -1.044851 0.393095 -0.545190
v -1.044851 0.335618 0.560572
v 2.560557 -0.060740 -0.241661
v 2.559847 0.011976 -0.385945
v 2.560557 -0.060740 0.257042
v 2.559847 0.011976 0.401325
v 3.378014 -0.016122 -0.101844
v 3.377744 0.011655 -0.156959
v 3.378014 -0.016122 0.117224
v 3.377744 0.011655 0.172339
v 3.377468 0.038869 0.117300
v 3.377468 0.038869 -0.101920
v 0.185472 -0.167038 0.681502
v 0.184336 0.083606 1.363837
v 0.183201 0.197374 0.681580
v 0.183200 0.197374 -0.666198
v 0.255889 0.009375 -1.175845
v 0.254887 0.109671 -0.580255
v 0.254887 0.109671 0.595637
v 0.255889 0.009375 1.191226
v 0.256891 -0.144954 0.595566
v 0.256891 -0.144954 -0.580185
v 0.234062 0.108920 0.653329
v 0.234942 0.018869 1.187811
v 0.205131 0.020045 1.260025
v 0.246385 0.117355 -0.607284
v 0.191766 0.184065 -0.672688
v 0.192836 0.078741 -1.304385
v 0.246385 0.117355 0.622665
v 0.191767 0.184065 0.688070
v 0.247324 0.022115 1.188179
v 0.192836 0.078741 1.319766
v 0.247324 0.022115 -1.172797
v -0.025113 0.117355 -0.681574
v -0.079731 0.171707 -0.746978
v -0.078661 0.066383 -1.304385
v -0.024173 0.022115 -1.172797
v -2.285966 -0.014012 -1.879154
v -2.285039 -0.277231 -1.056625
v -2.285038 -0.277231 1.072007
v -2.285965 -0.014013 1.894537
v -2.287160 0.093252 1.077171
v -2.287160 0.093252 -1.061788
v -2.065223 0.064209 -0.497356
v -2.062970 -0.014012 -1.879154
v -2.062042 -0.277231 -1.056625
v -2.062042 -0.277231 1.072007
v -2.062969 -0.014013 1.894537
v -2.064163 0.093252 1.077171
v -2.064164 0.093252 -1.061788
v -2.062043 -0.277231 0.007691
v -2.064163 0.093252 0.007692
v -2.062335 -0.224043 0.071918
v -2.062346 -0.224043 1.058797
v -2.062899 -0.035545 1.647834
v -2.063860 0.040502 1.068351
v -2.063849 0.040502 0.071919
v -2.062914 -0.033591 -1.645669
v -2.062322 -0.227938 -1.038356
v -2.063875 0.044969 -0.065942
v -2.063883 0.044969 -1.047031
v -2.062312 -0.227938 -0.065942
v -2.062914 -0.033591 -1.645669
v -2.062322 -0.227938 -1.038356
v -2.063875 0.044969 -0.065942
v -2.063883 0.044969 -1.047031
v -2.062312 -0.227938 -0.065942
v -2.206057 -0.224043 0.071919
v -2.206068 -0.224043 1.058797
v -2.206621 -0.035545 1.647834
v -2.207582 0.040502 1.068351
v -2.207571 0.040502 0.071919
v -2.206635 -0.033591 -1.645669
v -2.206043 -0.227938 -1.038356
v -2.207596 0.044969 -0.065942
v -2.207605 0.044969 -1.047030
v -2.206033 -0.227938 -0.065942
v 0.038082 0.216805 -0.291002
v 0.038082 0.216805 0.306384
v 1.027715 -0.015826 0.844226
v 1.444145 -0.015887 0.844226
v 1.027691 -0.021464 0.868153
v 1.444121 -0.021525 0.868153
v 1.027757 -0.005668 0.887342
v 1.444187 -0.005728 0.887341
v 1.027863 0.019668 0.887342
v 1.444292 0.019607 0.887341
v 1.027928 0.035465 0.868153
v 1.444358 0.035404 0.868153
v 1.027905 0.029827 0.844226
v 1.444335 0.029766 0.844226
v 1.027810 0.007000 0.833577
v 1.444240 0.006940 0.833577
v 1.027714 -0.015517 -0.888847
v 1.444145 -0.015578 -0.888847
v 1.027691 -0.021154 -0.864920
v 1.444121 -0.021215 -0.864920
v 1.027757 -0.005358 -0.845731
v 1.444187 -0.005419 -0.845731
v 1.027862 0.019978 -0.845731
v 1.444292 0.019917 -0.845731
v 1.027928 0.035775 -0.864920
v 1.444358 0.035714 -0.864920
v 1.027905 0.030137 -0.888847
v 1.444335 0.030076 -0.888847
v 1.027810 0.007310 -0.899496
v 1.444240 0.007249 -0.899496
v 0.034531 0.117355 0.709822
v -0.020087 0.184065 0.775226
v 0.035470 0.022115 1.188179
v -0.019017 0.078741 1.319766
v -1.788496 0.132462 0.804404
v -1.788496 0.174222 0.804404
vt 0.745218 0.204187
vt 0.747824 0.194143
vt 0.754288 0.192603
vt 0.739076 0.188561
vt 0.739609 0.181938
vt 0.731064 0.195156
vt 0.724930 0.192603
vt 0.674457 0.316541
vt 0.671852 0.320126
vt 0.671852 0.315695
vt 0.734860 0.204813
vt 0.748681 0.209859
vt 0.730537 0.209859
vt 0.741606 0.196665
vt 0.739553 0.195254
vt 0.737577 0.196770
vt 0.738409 0.199118
vt 0.740899 0.199053
vt 0.670838 0.173079
vt 0.670837 0.092684
vt 0.673576 0.092684
vt 0.668099 0.173079
vt 0.668098 0.092684
vt 0.665360 0.173079
vt 0.665359 0.092684
vt 0.676315 0.173079
vt 0.676315 0.092684
vt 0.679054 0.092684
vt 0.673577 0.173079
vt 0.440529 0.118564
vt 0.440605 0.175676
vt 0.321264 0.164280
vt 0.318456 0.300223
vt 0.437944 0.291863
vt 0.436133 0.349362
vt 0.387712 0.576199
vt 0.389772 0.632657
vt 0.275688 0.623356
vt 0.696997 0.280547
vt 0.697005 0.286501
vt 0.673271 0.286501
vt 0.275653 0.750551
vt 0.389220 0.741513
vt 0.387117 0.797761
vt 0.317389 0.072371
vt 0.312562 0.154611
vt 0.051450 0.119095
vt 0.309600 0.309475
vt 0.530577 0.715353
vt 0.578633 0.291120
vt 0.440016 0.332916
vt 0.050645 0.338596
vt 0.312080 0.390980
vt 0.528986 0.743461
vt 0.391017 0.781737
vt 0.622312 0.669063
vt 0.621893 0.675679
vt 0.531308 0.658731
vt 0.002351 0.571770
vt 0.268635 0.609803
vt 0.019502 0.756174
vt 0.002353 0.802127
vt 0.268601 0.764103
vt 0.655820 0.601468
vt 0.622750 0.638576
vt 0.622750 0.473749
vt 0.770361 0.618139
vt 0.778769 0.652918
vt 0.581626 0.191451
vt 0.578133 0.207698
vt 0.574674 0.204044
vt 0.578905 0.263657
vt 0.575175 0.267514
vt 0.582057 0.280434
vt 0.622254 0.705942
vt 0.532642 0.733134
vt 0.664922 0.219340
vt 0.664483 0.225419
vt 0.664176 0.246769
vt 0.664588 0.252769
vt 0.391611 0.592303
vt 0.529857 0.630690
vt 0.533459 0.641020
vt 0.443895 0.135075
vt 0.267324 0.535489
vt 0.578448 0.180935
vt 0.267289 0.838407
vt 0.688758 0.253007
vt 0.682938 0.243741
vt 0.737110 0.243741
vt 0.319638 0.369227
vt 0.324406 0.094616
vt 0.739078 0.235490
vt 0.679031 0.235490
vt 0.691843 0.224945
vt 0.668105 0.066445
vt 0.673879 0.076639
vt 0.672945 0.078239
vt 0.745099 0.080458
vt 0.747847 0.078861
vt 0.740244 0.092246
vt 0.669977 0.090646
vt 0.665359 0.092246
vt 0.682458 0.078775
vt 0.743214 0.076731
vt 0.747830 0.078337
vt 0.739312 0.090645
vt 0.730194 0.066445
vt 0.730750 0.064844
vt 0.665359 0.064844
vt 0.683011 0.080377
vt 0.674472 0.005097
vt 0.684267 0.000219
vt 0.676155 0.029624
vt 0.745682 0.000219
vt 0.745489 0.029642
vt 0.760762 0.005993
vt 0.761057 0.035385
vt 0.814930 0.005347
vt 0.823141 0.034694
vt 0.029014 0.029498
vt 0.030215 0.000219
vt 0.045373 0.119615
vt 0.027656 0.426327
vt 0.044794 0.338030
vt 0.028533 0.455040
vt 0.000219 0.341894
vt 0.006265 0.341133
vt 0.000219 0.115230
vt 0.006323 0.116042
vt 0.476188 0.961965
vt 0.487593 0.962060
vt 0.396585 0.999781
vt 0.085783 0.998583
vt 0.241569 0.970958
vt 0.004982 0.960657
vt 0.089624 0.971198
vt 0.084613 0.946509
vt 0.000219 0.960698
vt 0.402672 0.918842
vt 0.241824 0.947495
vt 0.080310 0.918842
vt 0.397853 0.947085
vt 0.135939 0.746459
vt 0.252517 0.719047
vt 0.135891 0.627445
vt 0.019500 0.617728
vt 0.789647 0.694204
vt 0.789358 0.715779
vt 0.694460 0.711045
vt 0.739178 0.750857
vt 0.731322 0.786974
vt 0.645226 0.745175
vt 0.024797 0.950948
vt 0.093441 0.959260
vt 0.457837 0.951360
vt 0.393297 0.958891
vt 0.803347 0.729664
vt 0.689511 0.729664
vt 0.622750 0.686705
vt 0.652990 0.685720
vt 0.693996 0.653356
vt 0.696170 0.675351
vt 0.812411 0.684704
vt 0.779612 0.772945
vt 0.808840 0.781752
vt 0.625954 0.730102
vt 0.746911 0.730102
vt 0.639741 0.766685
vt 0.731133 0.806242
vt 0.622750 0.776420
vt 0.883139 0.517494
vt 0.889597 0.513379
vt 0.887833 0.578962
vt 0.687816 0.303739
vt 0.681961 0.302521
vt 0.683121 0.300035
vt 0.736797 0.164516
vt 0.691713 0.164507
vt 0.691716 0.161845
vt 0.736800 0.161854
vt 0.691726 0.159118
vt 0.691719 0.167197
vt 0.691730 0.169940
vt 0.736803 0.167207
vt 0.691740 0.153730
vt 0.691733 0.151039
vt 0.736818 0.151048
vt 0.736821 0.156400
vt 0.691737 0.156391
vt 0.736811 0.159127
vt 0.673167 0.302056
vt 0.667313 0.300838
vt 0.668472 0.298352
vt 0.710444 0.200981
vt 0.665359 0.200987
vt 0.665362 0.198326
vt 0.710446 0.198319
vt 0.665371 0.195599
vt 0.665367 0.203678
vt 0.665378 0.206421
vt 0.710451 0.203671
vt 0.665386 0.209112
vt 0.710463 0.206414
vt 0.710468 0.211767
vt 0.665383 0.211773
vt 0.710456 0.195592
vt 0.665381 0.192872
vt 0.735949 0.265288
vt 0.735949 0.293929
vt 0.721024 0.264866
vt 0.664899 0.509785
vt 0.768740 0.482717
vt 0.773522 0.455478
vt 0.814226 0.041264
vt 0.823144 0.064406
vt 0.812366 0.059812
vt 0.727805 0.041473
vt 0.743407 0.035823
vt 0.743040 0.058756
vt 0.803448 0.036669
vt 0.675008 0.040525
vt 0.727438 0.064406
vt 0.674457 0.319280
vt 0.670242 0.317910
vt 0.679054 0.173079
vt 0.274905 0.558134
vt 0.673280 0.280547
vt 0.667313 0.283554
vt 0.702964 0.283554
vt 0.274730 0.815505
vt 0.252451 0.654898
vt 0.621903 0.699283
vt 0.880396 0.575197
vt 0.000219 0.455478
vt 0.000219 0.918404
vt 0.750173 0.253232
vt 0.744648 0.225183
vt 0.665359 0.034176
vt 0.392590 0.971745
vt 0.231457 0.952768
vt 0.088333 0.958343
vt 0.231525 0.965532
vt 0.252642 0.963343
vt 0.253185 0.955223
vt 0.388092 0.959621
vt 0.687816 0.301012
vt 0.685726 0.299363
vt 0.685726 0.305491
vt 0.683121 0.304949
vt 0.736814 0.169950
vt 0.736824 0.153739
vt 0.673167 0.299329
vt 0.671078 0.297681
vt 0.671078 0.303808
vt 0.668472 0.303266
vt 0.710470 0.209105
vt 0.710465 0.192865
vt 0.728995 0.259530
vt 0.721024 0.294413
vt 0.728995 0.299640
vt 0.665359 0.063373
vn 0.587800 0.000000 -0.809000
vn 0.951100 0.000000 0.309000
vn -0.000000 0.000000 1.000000
vn 0.000000 1.000000 0.000000
vn -0.587800 0.000000 -0.809000
vn -0.951100 0.000000 0.309000
vn 0.068100 -0.977100 -0.201600
vn 0.068100 -0.977100 0.201600
vn 0.013500 0.980400 0.196700
vn 1.000000 0.009900 0.000000
vn 0.013500 0.980400 -0.196700
vn 0.118400 -0.932000 -0.342600
vn 0.067500 -0.997700 -0.000000
vn 0.024500 0.999700 0.000000
vn 0.078600 -0.956200 0.281800
vn 1.000000 0.009800 0.000000
vn 0.118400 -0.932000 0.342600
vn 0.077100 0.957900 -0.276500
vn 0.999900 0.010100 -0.000000
vn 0.123400 0.889800 0.439300
vn -0.135100 0.635000 -0.760600
vn -0.008600 1.000000 -0.000000
vn 0.051000 -0.998700 -0.000000
vn -0.135100 0.635000 0.760600
vn -1.000000 0.000000 0.000000
vn 0.084900 0.000000 -0.996400
vn 0.123400 0.889800 -0.439300
vn 0.124800 -0.885800 -0.447000
vn 0.054500 -0.998500 -0.000000
vn 0.124800 -0.885800 0.447000
vn 0.077100 0.957700 0.277100
vn 0.007700 0.986400 0.164500
vn 0.073100 -0.890500 -0.449100
vn 0.007700 0.986400 -0.164500
vn 0.768900 0.627900 -0.120300
vn 0.515900 -0.829100 0.215700
vn 0.295400 -0.955400 -0.000000
vn 0.515900 -0.829100 -0.215700
vn 0.827300 0.551800 0.105100
vn 0.814700 0.571700 -0.097200
vn 0.813500 0.574100 0.092700
vn 0.818000 0.567300 0.095100
vn 0.814900 0.572000 -0.094000
vn 0.815700 0.570800 0.093800
vn 0.816000 0.570700 -0.092300
vn 0.816100 0.570100 -0.094600
vn 0.815500 0.571000 0.094800
vn 0.228600 -0.646300 -0.728000
vn 0.044700 -0.981600 0.185600
vn 0.000000 0.918600 0.395300
vn 0.045400 0.985100 -0.165800
vn -1.000000 -0.003400 0.000200
vn -1.000000 -0.005700 0.000000
vn -1.000000 -0.005600 0.000700
vn -1.000000 -0.008200 0.000200
vn -1.000000 -0.005800 -0.000700
vn 0.000000 0.952400 0.304800
vn 0.000000 0.952400 -0.304800
vn 0.000000 -0.991500 -0.130100
vn 0.000000 -1.000000 0.000000
vn 0.000000 -0.991500 0.130100
vn 0.018600 0.989500 -0.143500
vn 0.012000 0.999900 0.007700
vn -1.000000 -0.005500 0.000800
vn -1.000000 -0.006100 -0.000800
vn 0.000000 -0.952400 0.304800
vn -0.000000 0.991500 0.130100
vn 0.000000 0.000000 -1.000000
vn 0.000000 -0.952400 -0.304800
vn 0.000000 0.991500 -0.130100
vn 1.000000 0.000000 0.000000
vn 1.000000 -0.004200 0.000000
vn -0.000100 -0.973300 -0.229300
vn -0.000100 -0.422800 -0.906200
vn -0.000100 -0.772000 0.635600
vn 0.000100 0.772000 0.635600
vn 0.000100 0.973300 -0.229300
vn 0.000100 0.422800 -0.906200
vn 0.142400 0.988500 0.051400
vn 0.084900 0.000000 0.996400
vn 0.326900 -0.511500 0.794700
vn 0.000000 0.918600 -0.395300
vn -0.067500 -0.984200 -0.164000
vn 0.000000 0.980800 0.195300
vn 0.047200 -0.966900 -0.250600
vn 0.047200 -0.966900 0.250600
vn 0.026200 0.985800 0.166000
vn 1.000000 0.009900 -0.000100
vn 1.000000 0.009900 0.000100
vn 0.026200 0.985800 -0.166000
vn 0.125200 -0.944900 -0.302500
vn 0.033000 0.999500 0.000000
vn 0.054200 0.998500 0.000000
vn 0.073100 -0.890500 0.449100
vn 0.125200 -0.944900 0.302500
vn 0.077100 0.957700 -0.277100
vn 0.228500 0.000000 -0.973500
vn 0.077100 0.957900 0.276500
vn 0.011800 0.991400 0.130100
vn 0.078600 -0.956200 -0.281800
vn 0.011800 0.991400 -0.130100
vn 0.778800 0.616700 -0.115000
vn -0.141200 -0.929300 0.341100
vn -0.141200 -0.929300 -0.341100
vn 0.819300 0.562600 0.110400
vn 0.813500 0.574100 -0.092700
vn 0.814700 0.571700 0.097200
vn 0.816000 0.570700 0.092300
vn 0.815700 0.570800 -0.093800
vn 0.814900 0.572000 0.094000
vn 0.818000 0.567300 -0.095100
vn 0.815500 0.571000 -0.094800
vn 0.816100 0.570200 0.094600
vn 0.213200 -0.589400 -0.779200
vn -0.000100 -0.986400 0.164500
vn -0.042900 0.941400 0.334500
vn -0.000000 0.981700 -0.190300
vn -1.000000 -0.005600 -0.000700
vn -1.000000 -0.003400 -0.000200
vn -1.000000 -0.005800 0.000700
vn -1.000000 -0.008200 -0.000200
vn 0.012000 0.999900 -0.007700
vn 0.009300 0.988600 -0.150300
vn 0.021900 0.999300 -0.031300
vn 0.009300 0.988600 0.150300
vn 0.021900 0.999300 0.031300
vn 0.018600 0.989500 0.143500
vn -1.000000 -0.005800 0.000900
vn -1.000000 -0.005700 -0.000900
vn -1.000000 -0.005500 0.000000
vn -1.000000 -0.005900 0.000000
vn -1.000000 -0.005900 0.000900
vn -1.000000 -0.003600 0.000000
vn -1.000000 -0.008000 0.000400
vn -1.000000 -0.006000 0.000000
vn -1.000000 -0.005800 0.000000
vn -1.000000 -0.005400 -0.000700
vn -1.000000 -0.007900 -0.000400
vn -1.000000 -0.003800 -0.000100
vn 0.086200 0.996300 0.000000
vn 0.148700 0.987500 0.051300
vn 0.109100 0.994000 0.000000
vn 0.228500 0.000000 0.973500
vn 0.000000 -0.981800 -0.189900
vn 0.068100 0.983800 0.165600
s off
f 2/1/1 4/2/1 3/3/1
f 4/2/2 6/4/2 5/5/2
f 6/4/3 8/6/3 7/7/3
f 18/8/4 17/9/4 19/10/4
f 10/11/5 2/1/5 1/12/5
f 8/6/6 10/11/6 9/13/6
f 11/14/4 4/2/4 2/1/4
f 11/14/4 13/15/4 6/4/4
f 14/16/4 8/6/4 6/4/4
f 15/17/4 10/11/4 8/6/4
f 15/17/4 12/18/4 2/1/4
f 16/19/1 11/20/1 12/21/1
f 18/22/2 13/23/2 11/20/2
f 19/24/3 14/25/3 13/23/3
f 20/26/6 15/27/6 14/28/6
f 17/29/5 12/21/5 15/27/5
f 22/30/7 24/31/7 72/32/7
f 71/33/8 26/34/8 28/35/8
f 28/36/9 30/37/9 69/38/9
f 57/39/10 62/40/10 61/41/10
f 68/42/11 32/43/11 22/44/11
f 35/45/12 33/46/12 23/47/12
f 23/47/13 33/46/13 63/48/13
f 32/43/14 30/37/14 42/49/14
f 40/50/15 36/51/15 26/34/15
f 26/34/16 36/51/16 28/35/16
f 25/52/17 63/48/17 64/53/17
f 38/54/18 34/55/18 32/43/18
f 32/43/19 34/55/19 22/44/19
f 60/56/20 61/57/20 41/58/20
f 69/38/21 29/59/21 65/60/21
f 45/61/22 31/62/22 29/59/22
f 72/32/23 24/31/23 26/34/23
f 31/62/24 68/42/24 66/63/24
f 48/64/25 45/65/25 44/66/25
f 45/65/26 51/67/26 50/68/26
f 54/69/10 53/70/10 37/71/10
f 53/70/10 55/72/10 39/73/10
f 56/74/16 40/50/16 39/73/16
f 58/75/27 54/76/27 42/49/27
f 58/77/28 57/78/28 53/70/28
f 57/78/29 59/79/29 55/72/29
f 60/80/30 56/74/30 55/72/30
f 42/49/19 54/76/19 38/54/19
f 36/81/19 30/37/19 28/36/19
f 40/82/31 41/58/31 30/37/31
f 56/83/19 41/58/19 40/82/19
f 34/84/16 24/31/16 22/30/16
f 64/85/32 65/60/32 29/59/32
f 38/86/33 37/71/33 24/31/33
f 31/62/34 66/63/34 35/87/34
f 85/88/35 84/89/35 87/90/35
f 63/48/36 71/33/36 70/91/36
f 72/32/37 71/33/37 63/48/37
f 67/92/38 72/32/38 33/46/38
f 159/93/39 161/94/39 160/95/39
f 76/96/40 77/97/40 66/98/40
f 79/99/41 69/100/41 65/101/41
f 82/102/42 64/103/42 70/104/42
f 78/105/43 35/106/43 66/98/43
f 82/102/44 80/107/44 65/101/44
f 78/105/45 83/108/45 67/109/45
f 76/96/46 68/110/46 67/109/46
f 79/99/47 81/111/47 70/104/47
f 84/112/48 85/113/48 77/114/48
f 85/113/49 86/115/49 78/116/49
f 87/117/50 83/118/50 78/116/50
f 84/119/51 76/120/51 83/118/51
f 88/121/52 21/122/52 23/47/52
f 89/123/53 23/47/53 25/52/53
f 91/124/54 90/125/54 25/52/54
f 91/124/55 27/126/55 29/127/55
f 92/128/53 29/127/53 31/129/53
f 88/121/56 93/130/56 31/129/56
f 95/131/57 88/132/57 89/133/57
f 90/134/4 101/135/4 89/133/4
f 98/136/58 97/137/58 90/134/58
f 99/138/59 98/136/59 91/139/59
f 93/140/60 102/141/60 92/142/60
f 100/143/61 93/140/61 88/132/61
f 50/144/62 46/145/62 68/42/62
f 49/146/63 44/147/63 29/59/63
f 122/148/53 118/149/53 119/150/53
f 126/151/53 124/152/53 125/153/53
f 105/154/64 104/155/64 97/137/64
f 108/156/65 111/157/65 100/143/65
f 118/149/60 103/158/60 104/159/60
f 119/150/66 104/159/66 105/160/66
f 120/161/67 105/160/67 106/162/67
f 122/148/4 121/163/4 106/162/4
f 118/149/68 122/148/68 107/164/68
f 124/152/69 123/165/69 113/166/69
f 125/153/4 115/167/4 116/168/4
f 123/165/70 126/151/70 116/168/70
f 127/169/60 124/152/60 114/170/60
f 127/169/3 117/171/3 115/167/3
f 129/172/71 43/173/71 46/174/71
f 143/175/72 137/176/72 135/177/72
f 133/178/73 132/179/73 130/180/73
f 131/181/74 130/180/74 142/182/74
f 134/183/75 132/179/75 133/178/75
f 136/184/3 134/183/3 135/185/3
f 138/186/76 136/187/76 137/188/76
f 141/189/77 140/190/77 138/186/77
f 143/191/78 142/182/78 140/190/78
f 157/192/72 151/193/72 149/194/72
f 147/195/73 146/196/73 144/197/73
f 145/198/74 144/197/74 156/199/74
f 148/200/75 146/196/75 147/195/75
f 150/201/3 148/200/3 149/202/3
f 152/203/76 150/201/76 151/204/76
f 155/205/77 154/206/77 152/203/77
f 157/207/78 156/199/78 154/208/78
f 103/209/53 107/210/53 112/211/53
f 47/212/79 52/213/79 51/67/79
f 52/213/80 44/66/80 49/214/80
f 158/215/81 79/216/81 80/217/81
f 160/218/82 161/219/82 82/220/82
f 159/221/83 80/217/83 82/220/83
f 158/222/84 160/218/84 81/223/84
f 1/12/1 2/1/1 3/3/1
f 3/3/2 4/2/2 5/5/2
f 5/5/3 6/4/3 7/7/3
f 17/9/4 18/8/4 16/224/4
f 17/9/4 20/225/4 19/10/4
f 9/13/5 10/11/5 1/12/5
f 7/7/6 8/6/6 9/13/6
f 12/18/4 11/14/4 2/1/4
f 4/2/4 11/14/4 6/4/4
f 13/15/4 14/16/4 6/4/4
f 14/16/4 15/17/4 8/6/4
f 10/11/4 15/17/4 2/1/4
f 17/29/1 16/19/1 12/21/1
f 16/19/2 18/22/2 11/20/2
f 18/22/3 19/24/3 13/23/3
f 19/226/6 20/26/6 14/28/6
f 20/26/5 17/29/5 15/27/5
f 67/92/85 22/30/85 72/32/85
f 70/91/86 71/33/86 28/35/86
f 70/227/87 28/36/87 69/38/87
f 61/41/10 59/228/10 57/39/10
f 59/228/88 61/41/88 60/229/88
f 57/39/89 58/230/89 62/40/89
f 67/231/90 68/42/90 22/44/90
f 21/122/91 35/45/91 23/47/91
f 25/52/13 23/47/13 63/48/13
f 43/232/92 32/43/92 46/145/92
f 61/57/93 62/233/93 42/49/93
f 42/49/14 30/37/14 41/58/14
f 41/58/93 61/57/93 42/49/93
f 30/37/92 32/43/92 43/232/92
f 39/73/94 40/50/94 26/34/94
f 27/126/95 25/52/95 64/53/95
f 42/49/96 38/54/96 32/43/96
f 56/83/20 60/56/20 41/58/20
f 44/147/22 45/61/22 29/59/22
f 26/34/23 71/33/23 72/32/23
f 37/71/60 39/73/60 26/34/60
f 26/34/60 24/31/60 37/71/60
f 47/212/25 48/64/25 44/66/25
f 51/67/26 45/65/26 48/64/26
f 128/234/97 46/174/97 50/68/97
f 50/68/97 51/67/97 128/234/97
f 38/86/16 54/69/16 37/71/16
f 37/71/10 53/70/10 39/73/10
f 55/72/88 56/74/88 39/73/88
f 62/233/27 58/75/27 42/49/27
f 54/69/28 58/77/28 53/70/28
f 53/70/29 57/78/29 55/72/29
f 59/79/30 60/80/30 55/72/30
f 36/81/98 40/82/98 30/37/98
f 27/235/99 64/85/99 29/59/99
f 34/84/100 38/86/100 24/31/100
f 21/236/101 31/62/101 35/87/101
f 86/237/102 85/88/102 87/90/102
f 64/53/103 63/48/103 70/91/103
f 33/46/37 72/32/37 63/48/37
f 35/45/104 67/92/104 33/46/104
f 158/238/105 159/93/105 160/95/105
f 68/110/106 76/96/106 66/98/106
f 80/107/107 79/99/107 65/101/107
f 81/111/108 82/102/108 70/104/108
f 77/97/109 78/105/109 66/98/109
f 64/103/110 82/102/110 65/101/110
f 35/106/111 78/105/111 67/109/111
f 83/108/112 76/96/112 67/109/112
f 69/100/113 79/99/113 70/104/113
f 76/239/114 84/112/114 77/114/114
f 77/114/115 85/113/115 78/116/115
f 86/115/116 87/117/116 78/116/116
f 87/117/117 84/119/117 83/118/117
f 89/123/118 88/121/118 23/47/118
f 90/125/53 89/123/53 25/52/53
f 27/126/119 91/124/119 25/52/119
f 92/128/120 91/124/120 29/127/120
f 93/130/53 92/128/53 31/129/53
f 21/122/121 88/121/121 31/129/121
f 96/240/57 95/131/57 89/133/57
f 101/135/4 90/134/4 97/137/4
f 101/135/4 96/240/4 89/133/4
f 91/139/58 98/136/58 90/134/58
f 92/142/59 99/138/59 91/139/59
f 102/141/60 93/140/60 100/143/60
f 102/141/60 99/138/60 92/142/60
f 95/131/61 100/143/61 88/132/61
f 50/144/122 31/62/122 45/61/122
f 46/145/123 32/43/123 68/42/123
f 68/42/124 31/62/124 50/144/124
f 69/38/125 30/37/125 43/232/125
f 49/146/126 29/59/126 69/38/126
f 69/38/127 43/232/127 49/146/127
f 119/150/53 121/163/53 122/148/53
f 121/163/128 119/150/128 120/161/128
f 124/152/129 126/151/129 123/165/129
f 124/152/53 127/169/53 125/153/53
f 99/138/53 107/241/53 106/242/53
f 103/243/130 101/135/130 97/137/130
f 99/138/131 102/141/131 107/241/131
f 104/155/53 103/243/53 97/137/53
f 105/154/132 99/138/132 106/242/132
f 105/154/133 97/137/133 98/136/133
f 98/136/134 99/138/134 105/154/134
f 96/240/130 101/135/130 112/244/130
f 110/245/135 102/141/135 100/143/135
f 96/240/53 112/244/53 109/246/53
f 111/157/136 110/245/136 100/143/136
f 108/156/137 96/240/137 109/246/137
f 108/156/138 100/143/138 95/131/138
f 95/131/139 96/240/139 108/156/139
f 119/150/60 118/149/60 104/159/60
f 120/161/66 119/150/66 105/160/66
f 121/163/67 120/161/67 106/162/67
f 107/164/4 122/148/4 106/162/4
f 103/158/68 118/149/68 107/164/68
f 114/170/69 124/152/69 113/166/69
f 126/151/4 125/153/4 116/168/4
f 113/166/70 123/165/70 116/168/70
f 117/171/60 127/169/60 114/170/60
f 125/153/3 127/169/3 115/167/3
f 128/234/71 129/172/71 46/174/71
f 135/177/72 131/247/72 143/175/72
f 131/247/72 135/177/72 133/248/72
f 141/249/72 139/250/72 137/176/72
f 137/176/72 143/175/72 141/249/72
f 131/181/73 133/178/73 130/180/73
f 143/191/74 131/181/74 142/182/74
f 135/185/75 134/183/75 133/178/75
f 137/251/3 136/184/3 135/185/3
f 139/252/76 138/186/76 137/188/76
f 139/252/77 141/189/77 138/186/77
f 141/189/78 143/191/78 140/190/78
f 149/194/72 145/253/72 157/192/72
f 145/253/72 149/194/72 147/254/72
f 155/255/72 153/256/72 151/193/72
f 151/193/72 157/192/72 155/255/72
f 145/198/73 147/195/73 144/197/73
f 157/207/74 145/198/74 156/199/74
f 149/202/75 148/200/75 147/195/75
f 151/204/3 150/201/3 149/202/3
f 153/257/76 152/203/76 151/204/76
f 153/257/77 155/205/77 152/203/77
f 155/258/78 157/207/78 154/208/78
f 112/211/130 101/259/130 103/209/130
f 107/210/53 110/260/53 112/211/53
f 110/260/135 107/210/135 102/261/135
f 51/67/140 48/64/140 47/212/140
f 52/213/141 128/234/141 51/67/141
f 128/234/142 52/213/142 129/172/142
f 49/214/143 129/172/143 52/213/143
f 129/172/143 49/214/143 43/173/143
f 52/213/80 47/212/80 44/66/80
f 159/221/81 158/215/81 80/217/81
f 81/223/82 160/218/82 82/220/82
f 161/219/144 159/221/144 82/220/144
f 79/262/145 158/222/145 81/223/145
l 73 69
l 70 74
l 75 64
l 163 162
