# Blender v2.74 (sub 0) OBJ File: 'drone_1.blend'
# www.blender.org
o Cylinder_Cylinder.014
v 0.683128 0.132462 2.046595
v 0.683128 0.174222 2.046595
v 0.752226 0.132462 1.951489
v 0.864030 0.132462 1.987816
v 0.864030 0.174222 1.987816
v 0.864030 0.132462 2.105373
v 0.864030 0.174222 2.105373
v 0.752226 0.132462 2.141701
v 0.752226 0.174222 2.141701
v 0.776478 0.174222 2.026129
v 0.761609 0.174222 2.046595
v 0.800538 0.174222 2.033946
v 0.800538 0.174222 2.059244
v 0.776478 0.174222 2.067061
v 0.776478 0.916812 2.026129
v 0.761609 0.916812 2.046595
v 0.800538 0.916812 2.033946
v 0.800538 0.916812 2.059244
v 0.776478 0.916812 2.067061
v -2.190881 0.009308 2.449092
v -1.044487 0.012615 -1.134708
v -1.117684 -0.334126 2.447706
v -0.538305 -0.091736 -1.135731
v 1.028711 -0.334126 2.447706
v 0.449331 -0.091736 -1.135731
v 2.101910 0.009308 2.449093
v 0.955513 0.012615 -1.134708
v 1.028711 0.150147 2.450479
v 0.449443 0.114182 -1.133685
v -1.117683 0.150147 2.450479
v -0.538417 0.114182 -1.133685
v -0.718298 -0.167038 -0.022479
v -0.891357 0.012222 -1.134712
v -1.400633 0.083606 -0.021343
v 0.802383 0.012222 -1.134712
v -0.333007 -0.091736 -2.397872
v -0.539282 0.012222 -2.396853
v 0.244032 -0.091736 -2.397872
v 0.450307 0.012222 -2.396853
v 0.204997 0.083252 -2.396134
v -0.293971 0.083252 -2.396134
v 0.254206 0.155692 0.124911
v 0.600624 0.151514 2.290776
v -0.689596 0.151514 2.290777
v -0.343179 0.155692 0.124911
v 0.600624 0.486779 2.290776
v -0.689596 0.486779 2.290776
v 0.508394 0.139220 1.207844
v -0.597367 0.139220 1.207844
v -0.597367 0.393095 1.207844
v 0.508394 0.335618 1.207844
v -0.293839 -0.060740 -2.397564
v -0.438122 0.011976 -2.396854
v 0.204864 -0.060740 -2.397564
v 0.349148 0.011976 -2.396854
v -0.154021 -0.016122 -3.215020
v -0.209137 0.011655 -3.214751
v 0.065047 -0.016122 -3.215021
v 0.120162 0.011655 -3.214751
v 0.065123 0.038869 -3.214474
v -0.154098 0.038869 -3.214474
v 0.629325 -0.167038 -0.022479
v 1.311659 0.083606 -0.021343
v 0.629402 0.197374 -0.020208
v -0.718375 0.197374 -0.020207
v -1.228022 0.009375 -0.092896
v -0.632433 0.109671 -0.091894
v 0.543459 0.109671 -0.091894
v 1.139049 0.009375 -0.092896
v 0.543388 -0.144954 -0.093898
v -0.632362 -0.144954 -0.093898
v 0.601152 0.108920 -0.071069
v 1.135634 0.018869 -0.071949
v 1.207847 0.020045 -0.042138
v -0.659461 0.117355 -0.083391
v -0.724866 0.184065 -0.028773
v -1.356562 0.078741 -0.029843
v 0.570488 0.117355 -0.083391
v 0.635892 0.184065 -0.028773
v 1.136001 0.022115 -0.084331
v 1.267589 0.078741 -0.029843
v -1.224975 0.022115 -0.084331
v -0.733752 0.117355 0.188105
v -0.799156 0.171707 0.242724
v -1.356562 0.066383 0.241654
v -1.224975 0.022115 0.187166
v -1.931332 -0.014012 2.448959
v -1.108802 -0.277231 2.448032
v 1.019829 -0.277231 2.448032
v 1.842360 -0.014013 2.448959
v 1.024994 0.093252 2.450153
v -1.113966 0.093252 2.450153
v -0.549534 0.064209 2.228216
v -1.931332 -0.014012 2.225963
v -1.108802 -0.277231 2.225035
v 1.019829 -0.277231 2.225035
v 1.842360 -0.014013 2.225962
v 1.024994 0.093252 2.227156
v -1.113966 0.093252 2.227157
v -0.044486 -0.277231 2.225036
v -0.044486 0.093252 2.227156
v 0.019741 -0.224043 2.225328
v 1.006619 -0.224043 2.225340
v 1.595657 -0.035545 2.225892
v 1.016173 0.040502 2.226853
v 0.019741 0.040502 2.226843
v -1.697846 -0.033591 2.225907
v -1.090534 -0.227938 2.225315
v -0.118119 0.044969 2.226868
v -0.118120 -0.227938 2.225305
v -1.099208 0.044969 2.226876
v 0.019741 -0.224043 2.369050
v 1.006620 -0.224043 2.369061
v 1.595657 -0.035545 2.369614
v 1.016173 0.040502 2.370575
v 0.019741 0.040502 2.370564
v -1.697846 -0.033591 2.369628
v -1.090534 -0.227938 2.369036
v -0.118119 0.044969 2.370589
v -1.099208 0.044969 2.370598
v -0.118120 -0.227938 2.369026
v -0.343179 0.216805 0.124911
v 0.254206 0.216805 0.124911
v 0.792049 -0.015826 -0.864722
v 0.792048 -0.015887 -1.281152
v 0.815976 -0.021464 -0.864698
v 0.815976 -0.021525 -1.281128
v 0.835164 -0.005668 -0.864764
v 0.835164 -0.005728 -1.281194
v 0.835164 0.019668 -0.864870
v 0.835164 0.019607 -1.281299
v 0.815976 0.035465 -0.864935
v 0.815976 0.035404 -1.281365
v 0.792049 0.029827 -0.864912
v 0.792048 0.029766 -1.281342
v 0.781400 0.007000 -0.864816
v 0.781400 0.006940 -1.281247
v -0.941025 -0.015517 -0.864722
v -0.941024 -0.015578 -1.281152
v -0.917097 -0.021154 -0.864698
v -0.917097 -0.021215 -1.281128
v -0.897909 -0.005358 -0.864764
v -0.897909 -0.005419 -1.281194
v -0.897909 0.019978 -0.864869
v -0.897909 0.019917 -1.281299
v -0.917097 0.035775 -0.864935
v -0.917097 0.035714 -1.281365
v -0.941024 0.030137 -0.864912
v -0.941024 0.030076 -1.281342
v -0.951673 0.007310 -0.864817
v -0.951673 0.007249 -1.281247
v 0.657644 0.117355 0.128462
v 0.723049 0.184065 0.183080
v 1.136001 0.022115 0.127523
v 1.267589 0.078741 0.182011
v 0.752226 0.174222 1.951489
vt 0.739076 0.188561
vt 0.731064 0.195156
vt 0.724930 0.192603
vt 0.674457 0.319280
vt 0.671852 0.320126
vt 0.671852 0.315695
vt 0.734860 0.204813
vt 0.745218 0.204187
vt 0.748681 0.209859
vt 0.730537 0.209859
vt 0.737577 0.196770
vt 0.738409 0.199118
vt 0.740899 0.199053
vt 0.670838 0.173079
vt 0.670837 0.092684
vt 0.673576 0.092684
vt 0.668099 0.173079
vt 0.668098 0.092684
vt 0.665360 0.173079
vt 0.665359 0.092684
vt 0.676315 0.173079
vt 0.676315 0.092684
vt 0.679054 0.092684
vt 0.673577 0.173079
vt 0.440529 0.118564
vt 0.440605 0.175676
vt 0.321264 0.164280
vt 0.318456 0.300223
vt 0.437944 0.291863
vt 0.436133 0.349362
vt 0.387712 0.576199
vt 0.389772 0.632657
vt 0.275688 0.623356
vt 0.696997 0.280547
vt 0.697005 0.286501
vt 0.673271 0.286501
vt 0.275653 0.750551
vt 0.389220 0.741513
vt 0.387117 0.797761
vt 0.317389 0.072371
vt 0.312562 0.154611
vt 0.051450 0.119095
vt 0.309600 0.309475
vt 0.530577 0.715353
vt 0.578633 0.291120
vt 0.440016 0.332916
vt 0.050645 0.338596
vt 0.312080 0.390980
vt 0.528986 0.743461
vt 0.391017 0.781737
vt 0.622312 0.669063
vt 0.621893 0.675679
vt 0.531308 0.658731
vt 0.002351 0.571770
vt 0.268635 0.609803
vt 0.019502 0.756174
vt 0.002353 0.802127
vt 0.268601 0.764103
vt 0.655820 0.601468
vt 0.622750 0.638576
vt 0.622750 0.473749
vt 0.770361 0.618139
vt 0.778769 0.652918
vt 0.581626 0.191451
vt 0.578133 0.207698
vt 0.574674 0.204044
vt 0.578905 0.263657
vt 0.575175 0.267514
vt 0.582057 0.280434
vt 0.622254 0.705942
vt 0.532642 0.733134
vt 0.664922 0.219340
vt 0.664483 0.225419
vt 0.664176 0.246769
vt 0.664588 0.252769
vt 0.391611 0.592303
vt 0.529857 0.630690
vt 0.533459 0.641020
vt 0.443895 0.135075
vt 0.267324 0.535489
vt 0.578448 0.180935
vt 0.267289 0.838407
vt 0.688758 0.253007
vt 0.682938 0.243741
vt 0.737110 0.243741
vt 0.319638 0.369227
vt 0.324406 0.094616
vt 0.739078 0.235490
vt 0.679031 0.235490
vt 0.691843 0.224945
vt 0.668105 0.066445
vt 0.673879 0.076639
vt 0.672945 0.078239
vt 0.745099 0.080458
vt 0.747847 0.078861
vt 0.740244 0.092246
vt 0.669977 0.090646
vt 0.665359 0.092246
vt 0.682458 0.078775
vt 0.743214 0.076731
vt 0.747830 0.078337
vt 0.739312 0.090645
vt 0.730194 0.066445
vt 0.730750 0.064844
vt 0.665359 0.064844
vt 0.683011 0.080377
vt 0.674472 0.005097
vt 0.684267 0.000219
vt 0.676155 0.029624
vt 0.745682 0.000219
vt 0.745489 0.029642
vt 0.760762 0.005993
vt 0.761057 0.035385
vt 0.814930 0.005347
vt 0.823141 0.034694
vt 0.029014 0.029498
vt 0.030215 0.000219
vt 0.045373 0.119615
vt 0.027656 0.426327
vt 0.044794 0.338030
vt 0.028533 0.455040
vt 0.000219 0.341894
vt 0.006323 0.116042
vt 0.006265 0.341133
vt 0.000219 0.115230
vt 0.476188 0.961965
vt 0.487593 0.962060
vt 0.396585 0.999781
vt 0.085783 0.998583
vt 0.241569 0.970958
vt 0.004982 0.960657
vt 0.089624 0.971198
vt 0.084613 0.946509
vt 0.000219 0.960698
vt 0.402672 0.918842
vt 0.241824 0.947495
vt 0.080310 0.918842
vt 0.397853 0.947085
vt 0.135939 0.746459
vt 0.252517 0.719047
vt 0.135891 0.627445
vt 0.019500 0.617728
vt 0.789647 0.694204
vt 0.789358 0.715779
vt 0.694460 0.711045
vt 0.739178 0.750857
vt 0.731322 0.786974
vt 0.645226 0.745175
vt 0.024797 0.950948
vt 0.093441 0.959260
vt 0.803347 0.729664
vt 0.689511 0.729664
vt 0.622750 0.686705
vt 0.652990 0.685720
vt 0.693996 0.653356
vt 0.696170 0.675351
vt 0.812411 0.684704
vt 0.883139 0.517494
vt 0.889597 0.513379
vt 0.887833 0.578962
vt 0.687816 0.303739
vt 0.681961 0.302521
vt 0.683121 0.300035
vt 0.736797 0.164516
vt 0.691713 0.164507
vt 0.691716 0.161845
vt 0.736800 0.161854
vt 0.691726 0.159118
vt 0.691719 0.167197
vt 0.691730 0.169940
vt 0.736803 0.167207
vt 0.691740 0.153730
vt 0.691733 0.151039
vt 0.736818 0.151048
vt 0.736821 0.156400
vt 0.691737 0.156391
vt 0.736811 0.159127
vt 0.673167 0.302056
vt 0.667313 0.300838
vt 0.668472 0.298352
vt 0.710444 0.200981
vt 0.665359 0.200987
vt 0.665362 0.198326
vt 0.710446 0.198319
vt 0.665371 0.195599
vt 0.665367 0.203678
vt 0.665378 0.206421
vt 0.710451 0.203671
vt 0.665386 0.209112
vt 0.710463 0.206414
vt 0.710468 0.211767
vt 0.665383 0.211773
vt 0.710456 0.195592
vt 0.665381 0.192872
vt 0.735949 0.265288
vt 0.735949 0.293929
vt 0.721024 0.264866
vt 0.664899 0.509785
vt 0.768740 0.482717
vt 0.773522 0.455478
vt 0.814226 0.041264
vt 0.823144 0.064406
vt 0.812366 0.059812
vt 0.727805 0.041473
vt 0.743407 0.035823
vt 0.743040 0.058756
vt 0.803448 0.036669
vt 0.675008 0.040525
vt 0.727438 0.064406
vt 0.747824 0.194143
vt 0.754288 0.192603
vt 0.739609 0.181938
vt 0.741606 0.196665
vt 0.739553 0.195254
vt 0.457837 0.951360
vt 0.393297 0.958891
vt 0.779612 0.772945
vt 0.808840 0.781752
vt 0.625954 0.730102
vt 0.746911 0.730102
vt 0.639741 0.766685
vt 0.731133 0.806242
vt 0.622750 0.776420
vt 0.674457 0.316541
vt 0.670242 0.317910
vt 0.679054 0.173079
vt 0.274905 0.558134
vt 0.673280 0.280547
vt 0.667313 0.283554
vt 0.702964 0.283554
vt 0.274730 0.815505
vt 0.252451 0.654898
vt 0.621903 0.699283
vt 0.880396 0.575197
vt 0.000219 0.455478
vt 0.000219 0.918404
vt 0.750173 0.253232
vt 0.744648 0.225183
vt 0.665359 0.034176
vt 0.392590 0.971745
vt 0.231457 0.952768
vt 0.088333 0.958343
vt 0.231525 0.965532
vt 0.687816 0.301012
vt 0.685726 0.299363
vt 0.685726 0.305491
vt 0.683121 0.304949
vt 0.736814 0.169950
vt 0.736824 0.153739
vt 0.673167 0.299329
vt 0.671078 0.297681
vt 0.671078 0.303808
vt 0.668472 0.303266
vt 0.710470 0.209105
vt 0.710465 0.192865
vt 0.728995 0.259530
vt 0.721024 0.294413
vt 0.728995 0.299640
vt 0.665359 0.063373
vt 0.252642 0.963343
vt 0.253185 0.955223
vt 0.388092 0.959621
vn 1.000000 0.000000 0.000000
vn 0.000000 1.000000 0.000000
vn -0.809000 0.000000 0.587800
vn 0.309000 0.000000 0.951100
vn -0.809000 0.000000 -0.587800
vn 0.309000 0.000000 -0.951100
vn -0.201600 -0.977100 -0.068100
vn 0.201600 -0.977100 -0.068100
vn 0.196700 0.980400 -0.013500
vn 0.000000 0.009900 -1.000000
vn -0.196700 0.980400 -0.013500
vn -0.342600 -0.932000 -0.118400
vn -0.000000 -0.997700 -0.067500
vn 0.000000 0.999700 -0.024500
vn 0.281800 -0.956200 -0.078600
vn 0.000000 0.009800 -1.000000
vn 0.342600 -0.932000 -0.118400
vn -0.276500 0.957900 -0.077100
vn 0.000000 0.010100 -0.999900
vn 0.439300 0.889800 -0.123400
vn -0.760600 0.635000 0.135100
vn -0.000000 1.000000 0.008600
vn -0.000000 -0.998700 -0.051000
vn 0.760600 0.635000 0.135100
vn 0.000000 0.000000 1.000000
vn -0.996400 0.000000 -0.084900
vn -0.439300 0.889800 -0.123400
vn -0.447000 -0.885800 -0.124800
vn 0.000000 -0.998500 -0.054500
vn 0.447000 -0.885800 -0.124800
vn 0.277100 0.957700 -0.077100
vn 0.164500 0.986400 -0.007700
vn -0.449100 -0.890500 -0.073100
vn -0.164500 0.986400 -0.007700
vn -0.120300 0.627900 -0.768900
vn 0.215700 -0.829100 -0.515900
vn -0.000000 -0.955400 -0.295400
vn -0.215700 -0.829100 -0.515900
vn 0.105100 0.551800 -0.827300
vn -0.097200 0.571700 -0.814700
vn 0.092700 0.574100 -0.813500
vn 0.095100 0.567300 -0.818000
vn -0.094000 0.572000 -0.814900
vn 0.093800 0.570800 -0.815700
vn -0.092300 0.570700 -0.816000
vn -0.094600 0.570100 -0.816100
vn 0.094800 0.571000 -0.815500
vn -0.728000 -0.646300 -0.228600
vn 0.185600 -0.981600 -0.044700
vn 0.395300 0.918600 0.000000
vn -0.165800 0.985100 -0.045400
vn 0.000200 -0.003400 1.000000
vn 0.000000 -0.005700 1.000000
vn 0.000700 -0.005600 1.000000
vn 0.000200 -0.008200 1.000000
vn -0.000700 -0.005800 1.000000
vn 0.304800 0.952400 0.000000
vn -0.304800 0.952400 -0.000000
vn -0.130100 -0.991500 0.000000
vn 0.000000 -1.000000 0.000000
vn 0.130100 -0.991500 -0.000000
vn -0.143500 0.989500 -0.018600
vn 0.007700 0.999900 -0.012000
vn 0.000800 -0.005500 1.000000
vn 0.304800 -0.952400 -0.000000
vn 0.130100 0.991500 0.000000
vn -1.000000 0.000000 -0.000000
vn 0.000000 0.000000 -1.000000
vn 0.000000 -0.004200 -1.000000
vn -0.229300 -0.973300 0.000100
vn -0.906200 -0.422800 0.000100
vn 0.635600 -0.772000 0.000100
vn 0.635600 0.772000 -0.000100
vn -0.229300 0.973300 -0.000100
vn -0.906200 0.422800 -0.000100
vn 0.051400 0.988500 -0.142400
vn 0.996400 0.000000 -0.084900
vn 0.794700 -0.511500 -0.326900
vn -0.395300 0.918600 0.000000
vn -0.164000 -0.984200 0.067500
vn 0.195300 0.980800 0.000000
vn -0.000800 -0.006100 1.000000
vn -0.304800 -0.952400 0.000000
vn -0.130100 0.991500 -0.000000
vn -0.250600 -0.966900 -0.047200
vn 0.250600 -0.966900 -0.047200
vn 0.166000 0.985800 -0.026200
vn -0.000100 0.009900 -1.000000
vn 0.000100 0.009900 -1.000000
vn -0.166000 0.985800 -0.026200
vn -0.302500 -0.944900 -0.125200
vn 0.000000 0.999500 -0.033000
vn 0.000000 0.998500 -0.054200
vn 0.449100 -0.890500 -0.073100
vn 0.302500 -0.944900 -0.125200
vn -0.277100 0.957700 -0.077100
vn -0.973500 0.000000 -0.228500
vn 0.276500 0.957900 -0.077100
vn 0.130100 0.991400 -0.011800
vn -0.281800 -0.956200 -0.078600
vn -0.130100 0.991400 -0.011800
vn -0.115000 0.616700 -0.778800
vn 0.341100 -0.929300 0.141200
vn -0.341100 -0.929300 0.141200
vn 0.110400 0.562600 -0.819300
vn -0.092700 0.574100 -0.813500
vn 0.097200 0.571700 -0.814700
vn 0.092300 0.570700 -0.816000
vn -0.093800 0.570800 -0.815700
vn 0.094000 0.572000 -0.814900
vn -0.095100 0.567300 -0.818000
vn -0.094800 0.571000 -0.815500
vn 0.094600 0.570200 -0.816100
vn -0.779200 -0.589400 -0.213200
vn 0.164500 -0.986400 0.000100
vn 0.334500 0.941400 0.042900
vn -0.190300 0.981700 0.000000
vn -0.000700 -0.005600 1.000000
vn -0.000200 -0.003400 1.000000
vn 0.000700 -0.005800 1.000000
vn -0.000200 -0.008200 1.000000
vn -0.007700 0.999900 -0.012000
vn -0.150300 0.988600 -0.009300
vn -0.031300 0.999300 -0.021900
vn 0.150300 0.988600 -0.009300
vn 0.031300 0.999300 -0.021900
vn 0.143500 0.989500 -0.018600
vn 0.000900 -0.005800 1.000000
vn -0.000900 -0.005700 1.000000
vn 0.000000 -0.005500 1.000000
vn 0.000000 -0.005900 1.000000
vn 0.000900 -0.005900 1.000000
vn 0.000000 -0.003600 1.000000
vn 0.000400 -0.008000 1.000000
vn -0.000000 -0.006000 1.000000
vn 0.000000 0.996300 -0.086200
vn 0.051300 0.987500 -0.148700
vn 0.000000 0.994000 -0.109100
vn 0.973500 0.000000 -0.228500
vn -0.189900 -0.981800 0.000000
vn 0.165600 0.983800 -0.068100
vn 0.000000 -0.005800 1.000000
vn -0.000700 -0.005400 1.000000
vn -0.000400 -0.007900 1.000000
vn -0.000100 -0.003800 1.000000
s off
f 5/1/1 7/2/1 6/3/1
f 15/4/2 16/5/2 18/6/2
f 9/7/3 2/8/3 1/9/3
f 7/2/4 9/7/4 8/10/4
f 13/11/2 7/2/2 5/1/2
f 14/12/2 9/7/2 7/2/2
f 11/13/2 2/8/2 9/7/2
f 15/14/5 10/15/5 11/16/5
f 17/17/6 12/18/6 10/15/6
f 18/19/1 13/20/1 12/18/1
f 19/21/4 14/22/4 13/23/4
f 16/24/3 11/16/3 14/22/3
f 21/25/7 23/26/7 71/27/7
f 70/28/8 25/29/8 27/30/8
f 27/31/9 29/32/9 68/33/9
f 56/34/10 61/35/10 60/36/10
f 67/37/11 31/38/11 21/39/11
f 34/40/12 32/41/12 22/42/12
f 22/42/13 32/41/13 62/43/13
f 31/38/14 29/32/14 41/44/14
f 39/45/15 35/46/15 25/29/15
f 25/29/16 35/46/16 27/30/16
f 24/47/17 62/43/17 63/48/17
f 37/49/18 33/50/18 31/38/18
f 31/38/19 33/50/19 21/39/19
f 59/51/20 60/52/20 40/53/20
f 68/33/21 28/54/21 64/55/21
f 44/56/22 30/57/22 28/54/22
f 71/27/23 23/26/23 25/29/23
f 30/57/24 67/37/24 65/58/24
f 47/59/25 44/60/25 43/61/25
f 44/60/26 50/62/26 49/63/26
f 53/64/10 52/65/10 36/66/10
f 52/65/10 54/67/10 38/68/10
f 55/69/16 39/45/16 38/68/16
f 57/70/27 53/71/27 41/44/27
f 57/72/28 56/73/28 52/65/28
f 56/73/29 58/74/29 54/67/29
f 59/75/30 55/69/30 54/67/30
f 41/44/19 53/71/19 37/49/19
f 35/76/19 29/32/19 27/31/19
f 39/77/31 40/53/31 29/32/31
f 55/78/19 40/53/19 39/77/19
f 33/79/16 23/26/16 21/25/16
f 63/80/32 64/55/32 28/54/32
f 37/81/33 36/66/33 23/26/33
f 30/57/34 65/58/34 34/82/34
f 84/83/35 83/84/35 86/85/35
f 62/43/36 70/28/36 69/86/36
f 71/27/37 70/28/37 62/43/37
f 66/87/38 71/27/38 32/41/38
f 153/88/39 155/89/39 154/90/39
f 75/91/40 76/92/40 65/93/40
f 78/94/41 68/95/41 64/96/41
f 81/97/42 63/98/42 69/99/42
f 77/100/43 34/101/43 65/93/43
f 81/97/44 79/102/44 64/96/44
f 77/100/45 82/103/45 66/104/45
f 75/91/46 67/105/46 66/104/46
f 78/94/47 80/106/47 69/99/47
f 83/107/48 84/108/48 76/109/48
f 84/108/49 85/110/49 77/111/49
f 86/112/50 82/113/50 77/111/50
f 83/114/51 75/115/51 82/113/51
f 87/116/52 20/117/52 22/42/52
f 88/118/53 22/42/53 24/47/53
f 90/119/54 89/120/54 24/47/54
f 90/119/55 26/121/55 28/122/55
f 92/123/53 91/124/53 28/122/53
f 87/116/56 92/123/56 30/125/56
f 94/126/57 87/127/57 88/128/57
f 89/129/2 100/130/2 88/128/2
f 97/131/58 96/132/58 89/129/58
f 98/133/59 97/131/59 90/134/59
f 92/135/60 101/136/60 91/137/60
f 99/138/61 92/135/61 87/127/61
f 49/139/62 45/140/62 67/37/62
f 48/141/63 43/142/63 28/54/63
f 116/143/53 112/144/53 113/145/53
f 120/146/53 118/147/53 119/148/53
f 104/149/64 103/150/64 96/132/64
f 112/144/60 102/151/60 103/152/60
f 113/145/65 103/152/65 104/153/65
f 114/154/66 104/153/66 105/155/66
f 116/143/2 115/156/2 105/155/2
f 112/144/67 116/143/67 106/157/67
f 123/158/68 42/159/68 45/160/68
f 137/161/69 131/162/69 129/163/69
f 127/164/70 126/165/70 124/166/70
f 125/167/71 124/166/71 136/168/71
f 128/169/72 126/165/72 127/164/72
f 130/170/1 128/169/1 129/171/1
f 132/172/73 130/173/73 131/174/73
f 135/175/74 134/176/74 132/172/74
f 137/177/75 136/168/75 134/176/75
f 151/178/69 145/179/69 143/180/69
f 141/181/70 140/182/70 138/183/70
f 139/184/71 138/183/71 150/185/71
f 142/186/72 140/182/72 141/181/72
f 144/187/1 142/186/1 143/188/1
f 146/189/73 144/187/73 145/190/73
f 149/191/74 148/192/74 146/189/74
f 151/193/75 150/185/75 148/194/75
f 102/195/53 106/196/53 110/197/53
f 46/198/76 51/199/76 50/62/76
f 51/199/77 43/61/77 48/200/77
f 152/201/78 78/202/78 79/203/78
f 154/204/79 155/205/79 81/206/79
f 153/207/80 79/203/80 81/206/80
f 152/208/81 154/204/81 80/209/81
f 2/8/5 156/210/5 3/211/5
f 156/210/6 5/1/6 4/212/6
f 10/213/2 156/210/2 2/8/2
f 12/214/2 5/1/2 156/210/2
f 107/215/82 111/216/82 99/138/82
f 118/147/83 117/217/83 107/218/83
f 119/148/2 109/219/2 111/220/2
f 117/217/84 120/146/84 111/220/84
f 121/221/60 118/147/60 108/222/60
f 121/221/1 110/223/1 109/219/1
f 4/212/1 5/1/1 6/3/1
f 18/6/2 17/224/2 15/4/2
f 16/5/2 19/225/2 18/6/2
f 8/10/3 9/7/3 1/9/3
f 6/3/4 7/2/4 8/10/4
f 12/214/2 13/11/2 5/1/2
f 13/11/2 14/12/2 7/2/2
f 14/12/2 11/13/2 9/7/2
f 16/24/5 15/14/5 11/16/5
f 15/14/6 17/17/6 10/15/6
f 17/17/1 18/19/1 12/18/1
f 18/226/4 19/21/4 13/23/4
f 19/21/3 16/24/3 14/22/3
f 66/87/85 21/25/85 71/27/85
f 69/86/86 70/28/86 27/30/86
f 69/227/87 27/31/87 68/33/87
f 60/36/10 58/228/10 56/34/10
f 58/228/88 60/36/88 59/229/88
f 56/34/89 57/230/89 61/35/89
f 66/231/90 67/37/90 21/39/90
f 20/117/91 34/40/91 22/42/91
f 24/47/13 22/42/13 62/43/13
f 42/232/92 31/38/92 45/140/92
f 60/52/93 61/233/93 41/44/93
f 41/44/14 29/32/14 40/53/14
f 40/53/93 60/52/93 41/44/93
f 29/32/92 31/38/92 42/232/92
f 38/68/94 39/45/94 25/29/94
f 26/121/95 24/47/95 63/48/95
f 41/44/96 37/49/96 31/38/96
f 55/78/20 59/51/20 40/53/20
f 43/142/22 44/56/22 28/54/22
f 25/29/23 70/28/23 71/27/23
f 36/66/60 38/68/60 25/29/60
f 25/29/60 23/26/60 36/66/60
f 46/198/25 47/59/25 43/61/25
f 50/62/26 44/60/26 47/59/26
f 122/234/97 45/160/97 49/63/97
f 49/63/97 50/62/97 122/234/97
f 37/81/16 53/64/16 36/66/16
f 36/66/10 52/65/10 38/68/10
f 54/67/10 55/69/10 38/68/10
f 61/233/27 57/70/27 41/44/27
f 53/64/28 57/72/28 52/65/28
f 52/65/29 56/73/29 54/67/29
f 58/74/30 59/75/30 54/67/30
f 35/76/98 39/77/98 29/32/98
f 26/235/99 63/80/99 28/54/99
f 33/79/100 37/81/100 23/26/100
f 20/236/101 30/57/101 34/82/101
f 85/237/102 84/83/102 86/85/102
f 63/48/103 62/43/103 69/86/103
f 32/41/37 71/27/37 62/43/37
f 34/40/104 66/87/104 32/41/104
f 152/238/105 153/88/105 154/90/105
f 67/105/106 75/91/106 65/93/106
f 79/102/107 78/94/107 64/96/107
f 80/106/108 81/97/108 69/99/108
f 76/92/109 77/100/109 65/93/109
f 63/98/110 81/97/110 64/96/110
f 34/101/111 77/100/111 66/104/111
f 82/103/112 75/91/112 66/104/112
f 68/95/113 78/94/113 69/99/113
f 75/239/114 83/107/114 76/109/114
f 76/109/115 84/108/115 77/111/115
f 85/110/116 86/112/116 77/111/116
f 86/112/117 83/114/117 82/113/117
f 88/118/118 87/116/118 22/42/118
f 89/120/53 88/118/53 24/47/53
f 26/121/119 90/119/119 24/47/119
f 91/124/120 90/119/120 28/122/120
f 30/125/53 92/123/53 28/122/53
f 20/117/121 87/116/121 30/125/121
f 95/240/57 94/126/57 88/128/57
f 100/130/2 89/129/2 96/132/2
f 100/130/2 95/240/2 88/128/2
f 90/134/58 97/131/58 89/129/58
f 91/137/59 98/133/59 90/134/59
f 101/136/60 92/135/60 99/138/60
f 101/136/60 98/133/60 91/137/60
f 94/126/61 99/138/61 87/127/61
f 49/139/122 30/57/122 44/56/122
f 45/140/123 31/38/123 67/37/123
f 67/37/124 30/57/124 49/139/124
f 68/33/125 29/32/125 42/232/125
f 48/141/126 28/54/126 68/33/126
f 68/33/127 42/232/127 48/141/127
f 113/145/53 115/156/53 116/143/53
f 115/156/128 113/145/128 114/154/128
f 118/147/129 120/146/129 117/217/129
f 118/147/53 121/221/53 119/148/53
f 98/133/53 106/241/53 105/242/53
f 102/243/130 100/130/130 96/132/130
f 98/133/131 101/136/131 106/241/131
f 103/150/53 102/243/53 96/132/53
f 104/149/132 98/133/132 105/242/132
f 104/149/133 96/132/133 97/131/133
f 97/131/134 98/133/134 104/149/134
f 113/145/60 112/144/60 103/152/60
f 114/154/65 113/145/65 104/153/65
f 115/156/66 114/154/66 105/155/66
f 106/157/2 116/143/2 105/155/2
f 102/151/67 112/144/67 106/157/67
f 122/234/68 123/158/68 45/160/68
f 129/163/69 125/244/69 137/161/69
f 125/244/69 129/163/69 127/245/69
f 135/246/69 133/247/69 131/162/69
f 131/162/69 137/161/69 135/246/69
f 125/167/70 127/164/70 124/166/70
f 137/177/71 125/167/71 136/168/71
f 129/171/72 128/169/72 127/164/72
f 131/248/1 130/170/1 129/171/1
f 133/249/73 132/172/73 131/174/73
f 133/249/74 135/175/74 132/172/74
f 135/175/75 137/177/75 134/176/75
f 143/180/69 139/250/69 151/178/69
f 139/250/69 143/180/69 141/251/69
f 149/252/69 147/253/69 145/179/69
f 145/179/69 151/178/69 149/252/69
f 139/184/70 141/181/70 138/183/70
f 151/193/71 139/184/71 150/185/71
f 143/188/72 142/186/72 141/181/72
f 145/190/1 144/187/1 143/188/1
f 147/254/73 146/189/73 145/190/73
f 147/254/74 149/191/74 146/189/74
f 149/255/75 151/193/75 148/194/75
f 110/197/130 100/256/130 102/195/130
f 106/196/53 109/257/53 110/197/53
f 109/257/135 106/196/135 101/258/135
f 50/62/136 47/59/136 46/198/136
f 51/199/137 122/234/137 50/62/137
f 122/234/138 51/199/138 123/158/138
f 48/200/139 123/158/139 51/199/139
f 123/158/139 48/200/139 42/159/139
f 51/199/77 46/198/77 43/61/77
f 153/207/78 152/201/78 79/203/78
f 80/209/79 154/204/79 81/206/79
f 155/205/140 153/207/140 81/206/140
f 78/259/141 152/208/141 80/209/141
f 1/9/5 2/8/5 3/211/5
f 3/211/6 156/210/6 4/212/6
f 11/13/2 10/213/2 2/8/2
f 10/213/2 12/214/2 156/210/2
f 95/240/130 100/130/130 110/260/130
f 109/261/135 101/136/135 99/138/135
f 95/240/53 110/260/53 108/262/53
f 111/216/142 109/261/142 99/138/142
f 107/215/143 95/240/143 108/262/143
f 107/215/144 99/138/144 94/126/144
f 94/126/145 95/240/145 107/215/145
f 108/222/83 118/147/83 107/218/83
f 120/146/2 119/148/2 111/220/2
f 107/218/84 117/217/84 111/220/84
f 110/223/60 121/221/60 108/222/60
f 119/148/1 121/221/1 109/219/1
l 72 68
l 69 73
l 74 63
