# Blender v2.77 (sub 0) OBJ File: ''
# www.blender.org
o Cube_Cube.001
v -50.000000 -0.500000 50.000000
v -50.000000 0.500000 50.000000
v -50.000000 -0.500000 -50.000000
v -50.000000 0.500000 -50.000000
v 50.000000 -0.500000 50.000000
v 50.000000 0.500000 50.000000
v 50.000000 -0.500000 -50.000000
v 50.000000 0.500000 -50.000000
vt 0.3335 0.0002
vt 0.6665 0.3332
vt 0.6665 0.0002
vt 0.0002 0.6665
vt 0.3332 0.9995
vt 0.3332 0.6665
vt 0.9998 0.0002
vt 0.6668 0.3332
vt 0.6668 0.0002
vt 0.3332 0.3332
vt 0.0002 0.6661
vt 0.0002 0.3332
vt 0.6665 0.3335
vt 0.3335 0.6665
vt 0.6665 0.6665
vt 0.0002 0.0002
vt 0.3335 0.3332
vt 0.0002 0.9995
vt 0.9998 0.3332
vt 0.3332 0.6661
vt 0.3335 0.3335
vt 0.3332 0.0002
vn -1.0000 0.0000 0.0000
vn 0.0000 0.0000 -1.0000
vn 1.0000 0.0000 0.0000
vn 0.0000 0.0000 1.0000
vn 0.0000 -1.0000 0.0000
vn 0.0000 1.0000 0.0000
s off
f 4/1/1 1/2/1 2/3/1
f 8/4/2 3/5/2 4/6/2
f 6/7/3 7/8/3 8/9/3
f 2/10/4 5/11/4 6/12/4
f 3/13/5 5/14/5 1/15/5
f 8/16/6 2/10/6 6/12/6
f 4/1/1 3/17/1 1/2/1
f 8/4/2 7/18/2 3/5/2
f 6/7/3 5/19/3 7/8/3
f 2/10/4 1/20/4 5/11/4
f 3/13/5 7/21/5 5/14/5
f 8/16/6 4/22/6 2/10/6
